<svg xmlns="http://www.w3.org/2000/svg" width="1563.535" height="1218.909" viewBox="0 0 1563.535 1218.909">
  <g id="carte" transform="translate(172.585 -694.014)">
    <path id="Tracé_3" data-name="Tracé 3" d="M100.31,986.029,246.926,830.474,493.668,694.587h85.824L541.944,851.93l16.092,76.884L479.364,961,339.9,968.149l-101.915,75.1Z" fill="#fff" stroke="#e2e2e2" stroke-miterlimit="10" stroke-width="1.146"/>
    <path id="Tracé_4" data-name="Tracé 4" d="M976.426,694.587H579.492L541.944,851.93l16.092,76.884,49.491-19.668,79.244,35.76L770.98,928.64l153.594-8.767L996.093,796.5Z" fill="#fff" stroke="#e2e2e2" stroke-miterlimit="10" stroke-width="1.146"/>
    <path id="Tracé_5" data-name="Tracé 5" d="M1223.168,775.046V925.237l110.855,101.915-71.52,16.092-96.551,8.94-132.311,78.672-66.156-98.339,7.152-79.566-50.064-33.078L996.093,796.5,976.426,694.587h119.8Z" fill="#fff" stroke="#e2e2e2" stroke-miterlimit="10" stroke-width="1.146"/>
    <path id="Tracé_6" data-name="Tracé 6" d="M237.986,1043.245l65.189,168.767h173.4l73.362-84.383,8.1-198.815L479.364,961,339.9,968.149Z" fill="#fff" stroke="#e2e2e2" stroke-miterlimit="10" stroke-width="1.146"/>
    <path id="Tracé_7" data-name="Tracé 7" d="M770.98,928.64l153.594-8.767,50.064,33.078-7.152,79.566,66.156,98.339-125.229,42.807-105.041-30.012-53.354-28.344Z" fill="#fff" stroke="#e2e2e2" stroke-miterlimit="10" stroke-width="1.146"/>
    <path id="Tracé_8" data-name="Tracé 8" d="M549.938,1127.628l200.078-12.321L770.98,928.64l-84.209,16.265-79.244-35.76-49.491,19.668Z" fill="#fff" stroke="#e2e2e2" stroke-miterlimit="10" stroke-width="1.146"/>
    <path id="Tracé_9" data-name="Tracé 9" d="M100.31,986.029-147,1458.633h-25.01v76.837l46.685,20.008,3.335,40.016,73.362,10,255.1-320.126,96.7-73.362-65.189-168.767Z" fill="#fff" stroke="#e2e2e2" stroke-miterlimit="10" stroke-width="1.146"/>
    <path id="Tracé_10" data-name="Tracé 10" d="M293.171,1747.221l-43.35,11.671L209.8,1703.871,41.405,1615.5l-90.035-10,255.1-320.126,150.059,158.4,33.346-15.006,36.681,29.871,35.014-18.2,61.691,51.687Z" fill="#fff" stroke="#e2e2e2" stroke-miterlimit="10" stroke-width="1.146"/>
    <path id="Tracé_11" data-name="Tracé 11" d="M940.091,1358.736l-23.343,115.045-24.92,10,222.214,258.057h32.8l161.73-79.654,63.358-111.9-6.669-66.5-136.72-15.006-194.9-51.687Z" fill="#fff" stroke="#e2e2e2" stroke-miterlimit="10" stroke-width="1.146"/>
    <path id="Tracé_12" data-name="Tracé 12" d="M1033.641,1130.856l80.4,93.415,15.256,61.1,55.888,56.078,43.35,127.327,136.72,15.006,25.01-43.35-31.679-43.35,13.339-326.672-37.9-43.26-71.52,16.092-96.551,8.94Z" fill="#fff" stroke="#e2e2e2" stroke-miterlimit="10" stroke-width="1.146"/>
    <path id="Tracé_13" data-name="Tracé 13" d="M641.641,1300.534l-180.071,139.9-35.014,18.2-36.681-29.871-33.346,15.006-150.059-158.4,96.7-73.362h173.4Z" fill="#fff" stroke="#e2e2e2" stroke-miterlimit="10" stroke-width="1.146"/>
    <path id="Tracé_14" data-name="Tracé 14" d="M549.938,1127.628l221.042,96.643,32.391-80.62-53.354-28.344Z" fill="#fff" stroke="#e2e2e2" stroke-miterlimit="10" stroke-width="1.146"/>
    <path id="Tracé_15" data-name="Tracé 15" d="M908.412,1173.663l31.679,185.073L770.98,1224.271l32.391-80.62Z" fill="#fff" stroke="#e2e2e2" stroke-miterlimit="10" stroke-width="1.146"/>
    <path id="Tracé_16" data-name="Tracé 16" d="M1033.641,1130.856l80.4,93.415,15.256,61.1,55.888,56.078,43.35,127.327-194.9-51.687-93.55-58.356-31.679-185.073Z" fill="#fff" stroke="#e2e2e2" stroke-miterlimit="10" stroke-width="1.146"/>
    <path id="Tracé_17" data-name="Tracé 17" d="M770.98,1224.271l-29.3,91.115-40.016,43.35-60.024-58.2-165.065-88.523,73.362-84.383Z" fill="#fff" stroke="#e2e2e2" stroke-miterlimit="10" stroke-width="1.146"/>
    <path id="Tracé_18" data-name="Tracé 18" d="M691.66,1575.813,676.654,1768.9l30.012,135.053-413.5-156.728,230.09-255.1Z" fill="#fff" stroke="#e2e2e2" stroke-miterlimit="10" stroke-width="1.146"/>
    <path id="Tracé_19" data-name="Tracé 19" d="M873.4,1552.145l18.431-68.36L701.664,1358.736l-60.024,191.553,50.02,25.525,93.37,39.69,88.368-63.358" fill="#fff" stroke="#e2e2e2" stroke-miterlimit="10" stroke-width="1.146"/>
    <path id="Tracé_20" data-name="Tracé 20" d="M770.98,1224.271l169.111,134.465-23.343,115.045-24.92,10L701.664,1358.736l40.016-43.35Z" fill="#fff" stroke="#e2e2e2" stroke-miterlimit="10" stroke-width="1.146"/>
    <path id="Tracé_21" data-name="Tracé 21" d="M676.654,1768.9l30.012,135.053,62.353-28.344,74.368,36.681L1101.821,1788.9l12.222-47.062L891.829,1483.785l-18.431,68.36L785.03,1615.5l-93.37-39.69L676.654,1768.9" fill="#fff" stroke="#e2e2e2" stroke-miterlimit="10" stroke-width="1.146"/>
    <path id="Tracé_22" data-name="Tracé 22" d="M641.641,1300.534l-180.071,139.9,61.691,51.687,118.38,58.167,60.024-191.553Z" fill="#fff" stroke="#e2e2e2" stroke-miterlimit="10" stroke-width="1.146"/>
  </g>
</svg>
